<svg width="14" height="16" viewBox="0 0 14 16" fill="none" xmlns="http://www.w3.org/2000/svg">
<path d="M12 0.5C12.8284 0.5 13.5 1.17157 13.5 2V14C13.5 14.8284 12.8284 15.5 12 15.5H2C1.17157 15.5 0.5 14.8284 0.5 14V2L0.507812 1.84668C0.58461 1.09028 1.22334 0.5 2 0.5H12Z" stroke="white"/>
<path d="M5.7002 7.58496C5.86186 7.64409 6.09061 7.72917 6.37109 7.83301C6.93198 8.04065 7.69836 8.3252 8.54492 8.64062C10.163 9.24352 12.0744 9.95783 13.4092 10.457L10.0537 11.4814V11.4824C9.8803 11.5315 9.66837 11.6653 9.54395 11.9121L9.49219 12.0361C9.43943 12.1948 8.80902 14.207 8.4502 15.3545L5.52148 7.51953C5.5651 7.53518 5.62499 7.55746 5.7002 7.58496Z" stroke="white"/>
</svg>
